<svg width="28" height="28" viewBox="0 0 28 28" fill="none" xmlns="http://www.w3.org/2000/svg">
<g clip-path="url(#clip0_95_5121)">
<path fill-rule="evenodd" clip-rule="evenodd" d="M9.85368 13.3536C9.63497 13.5724 9.5121 13.8691 9.5121 14.1784C9.5121 14.4878 9.63497 14.7845 9.85368 15.0033L16.4535 21.6031C16.5611 21.7145 16.6899 21.8034 16.8322 21.8645C16.9745 21.9257 17.1276 21.9579 17.2825 21.9592C17.4375 21.9606 17.5911 21.931 17.7345 21.8724C17.8778 21.8137 18.0081 21.7271 18.1176 21.6175C18.2272 21.508 18.3138 21.3777 18.3725 21.2344C18.4311 21.091 18.4607 20.9374 18.4593 20.7825C18.458 20.6275 18.4258 20.4745 18.3646 20.3321C18.3035 20.1898 18.2146 20.061 18.1032 19.9534L12.3282 14.1784L18.1032 8.40342C18.3157 8.18338 18.4333 7.88868 18.4306 7.58278C18.428 7.27689 18.3053 6.98427 18.089 6.76796C17.8727 6.55165 17.58 6.42896 17.2741 6.4263C16.9683 6.42364 16.6735 6.54123 16.4535 6.75375L9.85368 13.3536Z" fill="#242424"/>
</g>
<defs>
<clipPath id="clip0_95_5121">
<rect width="28" height="28" fill="white"/>
</clipPath>
</defs>
</svg>
