<svg width="22" height="20" viewBox="0 0 22 20" fill="none" xmlns="http://www.w3.org/2000/svg">
<path d="M10.75 7.15C10.75 4.90979 10.75 3.78968 11.186 2.93404C11.5695 2.18139 12.1814 1.56947 12.934 1.18597C13.7897 0.75 14.9098 0.75 17.15 0.75H17.55C18.6701 0.75 19.2302 0.75 19.658 0.967987C20.0343 1.15973 20.3403 1.46569 20.532 1.84202C20.75 2.26984 20.75 2.82989 20.75 3.95V12.55C20.75 13.6701 20.75 14.2302 20.532 14.658C20.3403 15.0343 20.0343 15.3403 19.658 15.532C19.2302 15.75 18.6701 15.75 17.55 15.75H16.1752C14.9229 15.75 14.2967 15.75 13.7284 15.9226C13.2252 16.0754 12.7571 16.3259 12.3509 16.6598C11.892 17.037 11.5447 17.558 10.8501 18.5999L10.75 18.75L10.6499 18.5999C9.9553 17.558 9.60798 17.037 9.1491 16.6598C8.74286 16.3259 8.27476 16.0754 7.77161 15.9226C7.20325 15.75 6.57711 15.75 5.32482 15.75H3.95C2.82989 15.75 2.26984 15.75 1.84202 15.532C1.46569 15.3403 1.15973 15.0343 0.967987 14.658C0.75 14.2302 0.75 13.6701 0.75 12.55V3.95C0.75 2.82989 0.75 2.26984 0.967987 1.84202C1.15973 1.46569 1.46569 1.15973 1.84202 0.967987C2.26984 0.75 2.82989 0.75 3.95 0.75H4.35C6.59021 0.75 7.71031 0.75 8.56596 1.18597C9.31861 1.56947 9.93053 2.18139 10.314 2.93404C10.75 3.78968 10.75 4.90979 10.75 7.15ZM10.75 18.75V7.15" stroke="#696969" stroke-width="1.5" stroke-linecap="round" stroke-linejoin="round"/>
</svg>
