<svg width="28" height="28" viewBox="0 0 28 28" fill="none" xmlns="http://www.w3.org/2000/svg">
<path d="M20.9994 11.6667L16.3327 7.00001M2.91602 25.0833L6.86444 24.6446C7.34685 24.591 7.58805 24.5642 7.8135 24.4912C8.01352 24.4265 8.20387 24.335 8.37938 24.2193C8.57721 24.0888 8.74882 23.9172 9.09203 23.574L24.4994 8.16668C25.788 6.87801 25.788 4.78867 24.4994 3.50001C23.2107 2.21134 21.1214 2.21134 19.8327 3.5L4.42537 18.9073C4.08215 19.2505 3.91055 19.4221 3.78009 19.62C3.66435 19.7955 3.57287 19.9858 3.50811 20.1859C3.43513 20.4113 3.40833 20.6525 3.35473 21.1349L2.91602 25.0833Z" stroke="#696969" stroke-width="2" stroke-linecap="round" stroke-linejoin="round"/>
</svg>
