<svg width="21" height="21" viewBox="0 0 21 21" fill="none" xmlns="http://www.w3.org/2000/svg">
<path d="M16.25 8.57843L12.25 4.57843M0.75 20.0784L4.13437 19.7024C4.54786 19.6564 4.7546 19.6335 4.94785 19.5709C5.11929 19.5154 5.28245 19.437 5.43289 19.3378C5.60245 19.226 5.74955 19.0789 6.04373 18.7847L19.25 5.57843C20.3546 4.47386 20.3546 2.683 19.25 1.57843C18.1455 0.473859 16.3546 0.473857 15.25 1.57843L2.04373 14.7847C1.74955 15.0789 1.60246 15.226 1.49064 15.3955C1.39143 15.546 1.31301 15.7091 1.25751 15.8806C1.19496 16.0738 1.17198 16.2806 1.12604 16.6941L0.75 20.0784Z" stroke="#696969" stroke-width="1.5" stroke-linecap="round" stroke-linejoin="round"/>
</svg>
