<svg width="18" height="22" viewBox="0 0 18 22" fill="none" xmlns="http://www.w3.org/2000/svg">
<path d="M10.75 9.75H4.75M6.75 13.75H4.75M12.75 5.75H4.75M16.75 5.55V15.95C16.75 17.6302 16.75 18.4702 16.423 19.112C16.1354 19.6765 15.6765 20.1354 15.112 20.423C14.4702 20.75 13.6302 20.75 11.95 20.75H5.55C3.86984 20.75 3.02976 20.75 2.38803 20.423C1.82354 20.1354 1.3646 19.6765 1.07698 19.112C0.75 18.4702 0.75 17.6302 0.75 15.95V5.55C0.75 3.86984 0.75 3.02976 1.07698 2.38803C1.3646 1.82354 1.82354 1.3646 2.38803 1.07698C3.02976 0.75 3.86984 0.75 5.55 0.75H11.95C13.6302 0.75 14.4702 0.75 15.112 1.07698C15.6765 1.3646 16.1354 1.82354 16.423 2.38803C16.75 3.02976 16.75 3.86984 16.75 5.55Z" stroke="#696969" stroke-width="1.5" stroke-linecap="round" stroke-linejoin="round"/>
</svg>
