<svg width="24" height="24" viewBox="0 0 24 24" fill="none" xmlns="http://www.w3.org/2000/svg">
<path fill-rule="evenodd" clip-rule="evenodd" d="M10.9731 6.23519L4.28396 9.10339C4.19045 9.14347 4.11074 9.21013 4.05473 9.29511C3.99872 9.38008 3.96887 9.47963 3.96887 9.58142C3.96887 9.68321 3.99872 9.78276 4.05473 9.86773C4.11074 9.9527 4.19045 10.0194 4.28396 10.0595L10.9731 12.9276C11.3817 13.1028 11.8215 13.193 12.266 13.1929H12.7359C13.1804 13.193 13.6203 13.1028 14.0289 12.9276L20.718 10.0595C20.8115 10.0194 20.8912 9.9527 20.9472 9.86773C21.0032 9.78276 21.0331 9.68321 21.0331 9.58142C21.0331 9.47963 21.0032 9.38008 20.9472 9.29511C20.8912 9.21013 20.8115 9.14347 20.718 9.10339L14.0289 6.23519C13.6203 6.06007 13.1804 5.96982 12.7359 5.96991H12.266C11.8215 5.96982 11.3817 6.06007 10.9731 6.23519ZM3.96893 12.0661L5.93787 12.9119V17.1511C5.93789 17.639 6.07372 18.1172 6.33014 18.5322C6.58656 18.9472 6.95343 19.2825 7.38963 19.5006L8.4476 20.0298C9.70848 20.6604 11.0975 20.9924 12.5071 20.9999C13.9167 21.0074 15.3092 20.6903 16.5767 20.0732L17.7699 19.4927C18.2125 19.2772 18.5857 18.9416 18.8468 18.524C19.1079 18.1065 19.2464 17.624 19.2466 17.1314V12.8331L21.4938 11.8691C21.9409 11.6769 22.3219 11.3578 22.5896 10.9512C22.8573 10.5445 23 10.0683 23 9.58142C23 9.09452 22.8573 8.6183 22.5896 8.21168C22.3219 7.80507 21.9409 7.48591 21.4938 7.29369L14.8046 4.42419C14.1509 4.14408 13.4471 3.99977 12.7359 4H12.266C11.5549 3.99977 10.8511 4.14408 10.1973 4.42419L3.50952 7.29369C3.06217 7.48598 2.68087 7.80506 2.41263 8.21159C2.14439 8.61811 2.00095 9.0943 2 9.58142L2 15.4912C2 15.7524 2.10372 16.0029 2.28834 16.1876C2.47297 16.3723 2.72337 16.4761 2.98447 16.4761C3.24556 16.4761 3.49597 16.3723 3.68059 16.1876C3.86521 16.0029 3.96893 15.7524 3.96893 15.4912V12.0661ZM7.9068 17.1511V13.7563L10.1973 14.7386C10.8511 15.0188 11.5549 15.1631 12.266 15.1628H12.7359C13.4471 15.1631 14.1509 15.0188 14.8046 14.7386L17.2776 13.6775V17.1314C17.2776 17.2548 17.2429 17.3756 17.1774 17.4802C17.112 17.5847 17.0184 17.6686 16.9075 17.7224L15.7143 18.3029C14.7184 18.7874 13.6245 19.0361 12.5172 19.03C11.4099 19.0238 10.3188 18.7629 9.32837 18.2674L8.26909 17.7382C8.16021 17.6836 8.06866 17.5998 8.00468 17.4961C7.9407 17.3924 7.90681 17.273 7.9068 17.1511Z" fill="black"/>
</svg>
