<svg width="24" height="24" viewBox="0 0 24 24" fill="none" xmlns="http://www.w3.org/2000/svg">
<path d="M1 17.2C1 16.6334 1.146 16.1127 1.438 15.638C1.73 15.1634 2.11733 14.8007 2.6 14.55C3.63333 14.0334 4.68333 13.646 5.75 13.388C6.81667 13.13 7.9 13.0007 9 13C10.1 12.9994 11.1833 13.1287 12.25 13.388C13.3167 13.6474 14.3667 14.0347 15.4 14.55C15.8833 14.8 16.271 15.1627 16.563 15.638C16.855 16.1134 17.0007 16.634 17 17.2V18C17 18.55 16.8043 19.021 16.413 19.413C16.0217 19.805 15.5507 20.0007 15 20H3C2.45 20 1.97933 19.8044 1.588 19.413C1.19667 19.0217 1.00067 18.5507 1 18V17.2ZM21 20H18.45C18.6333 19.7 18.771 19.3794 18.863 19.038C18.955 18.6967 19.0007 18.3507 19 18V17C19 16.2667 18.796 15.5624 18.388 14.887C17.98 14.2117 17.4007 13.6327 16.65 13.15C17.5 13.25 18.3 13.421 19.05 13.663C19.8 13.905 20.5 14.2007 21.15 14.55C21.75 14.8834 22.2083 15.254 22.525 15.662C22.8417 16.07 23 16.516 23 17V18C23 18.55 22.8043 19.021 22.413 19.413C22.0217 19.805 21.5507 20.0007 21 20ZM6.175 10.825C5.39167 10.0417 5 9.10003 5 8.00003C5 6.90003 5.39167 5.95836 6.175 5.17503C6.95833 4.39169 7.9 4.00003 9 4.00003C10.1 4.00003 11.0417 4.39169 11.825 5.17503C12.6083 5.95836 13 6.90003 13 8.00003C13 9.10003 12.6083 10.0417 11.825 10.825C11.0417 11.6084 10.1 12 9 12C7.9 12 6.95833 11.6084 6.175 10.825ZM17.825 10.825C17.0417 11.6084 16.1 12 15 12C14.8167 12 14.5833 11.9794 14.3 11.938C14.0167 11.8967 13.7833 11.8507 13.6 11.8C14.05 11.2667 14.396 10.675 14.638 10.025C14.88 9.37503 15.0007 8.70003 15 8.00003C14.9993 7.30003 14.8787 6.62503 14.638 5.97503C14.3973 5.32503 14.0513 4.73336 13.6 4.20003C13.8333 4.11669 14.0667 4.06236 14.3 4.03703C14.5333 4.01169 14.7667 3.99936 15 4.00003C16.1 4.00003 17.0417 4.39169 17.825 5.17503C18.6083 5.95836 19 6.90003 19 8.00003C19 9.10003 18.6083 10.0417 17.825 10.825ZM3 18H15V17.2C15 17.0167 14.9543 16.85 14.863 16.7C14.7717 16.55 14.6507 16.4334 14.5 16.35C13.6 15.9 12.6917 15.5627 11.775 15.338C10.8583 15.1134 9.93333 15.0007 9 15C8.06667 14.9994 7.14167 15.112 6.225 15.338C5.30833 15.564 4.4 15.9014 3.5 16.35C3.35 16.4334 3.229 16.55 3.137 16.7C3.045 16.85 2.99933 17.0167 3 17.2V18ZM10.413 9.41303C10.8043 9.02103 11 8.55003 11 8.00003C11 7.45003 10.8043 6.97936 10.413 6.58803C10.0217 6.19669 9.55067 6.00069 9 6.00003C8.44933 5.99936 7.97867 6.19536 7.588 6.58803C7.19733 6.98069 7.00133 7.45136 7 8.00003C6.99867 8.54869 7.19467 9.01969 7.588 9.41303C7.98133 9.80636 8.452 10.002 9 10C9.548 9.99803 10.019 9.80236 10.413 9.41303Z" fill="black"/>
</svg>
