<svg width="20" height="21" viewBox="0 0 20 21" fill="none" xmlns="http://www.w3.org/2000/svg">
<path d="M10.7323 1.24715C10.381 0.9739 10.2053 0.837274 10.0113 0.784755C9.8402 0.738415 9.6598 0.738415 9.48865 0.784755C9.29468 0.837274 9.11902 0.9739 8.7677 1.24715L1.98539 6.52228C1.53202 6.8749 1.30534 7.05121 1.14203 7.27201C0.997366 7.4676 0.889601 7.68794 0.824027 7.92221C0.75 8.18667 0.75 8.47385 0.75 9.04821V16.2831C0.75 17.4032 0.75 17.9633 0.967987 18.3911C1.15973 18.7674 1.46569 19.0734 1.84202 19.2652C2.26984 19.4831 2.8299 19.4831 3.95 19.4831H5.95C6.23003 19.4831 6.37004 19.4831 6.477 19.4286C6.57108 19.3807 6.64757 19.3042 6.6955 19.2101C6.75 19.1032 6.75 18.9632 6.75 18.6831V12.0831C6.75 11.5231 6.75 11.2431 6.85899 11.0291C6.95487 10.841 7.10785 10.688 7.29601 10.5921C7.50992 10.4831 7.78995 10.4831 8.35 10.4831H11.15C11.7101 10.4831 11.9901 10.4831 12.204 10.5921C12.3922 10.688 12.5451 10.841 12.641 11.0291C12.75 11.2431 12.75 11.5231 12.75 12.0831V18.6831C12.75 18.9632 12.75 19.1032 12.8045 19.2101C12.8524 19.3042 12.9289 19.3807 13.023 19.4286C13.13 19.4831 13.27 19.4831 13.55 19.4831H15.55C16.6701 19.4831 17.2302 19.4831 17.658 19.2652C18.0343 19.0734 18.3403 18.7674 18.532 18.3911C18.75 17.9633 18.75 17.4032 18.75 16.2831V9.04821C18.75 8.47385 18.75 8.18667 18.676 7.92221C18.6104 7.68794 18.5026 7.4676 18.358 7.27201C18.1947 7.05121 17.968 6.8749 17.5146 6.52228L10.7323 1.24715Z" stroke="#696969" stroke-width="1.5" stroke-linecap="round" stroke-linejoin="round"/>
</svg>
