<svg width="24" height="24" viewBox="0 0 24 24" fill="none" xmlns="http://www.w3.org/2000/svg">
<mask id="path-1-inside-1_2387_3126" fill="white">
<path d="M12.5932 23.2579L12.5822 23.2599L12.5112 23.2949L12.4912 23.2989L12.4772 23.2949L12.4062 23.2599C12.3955 23.2566 12.3875 23.2583 12.3822 23.2649L12.3782 23.2749L12.3612 23.7029L12.3662 23.7229L12.3762 23.7359L12.4802 23.8099L12.4952 23.8139L12.5072 23.8099L12.6112 23.7359L12.6232 23.7199L12.6272 23.7029L12.6102 23.2759C12.6075 23.2653 12.6018 23.2593 12.5932 23.2579ZM12.8582 23.1449L12.8452 23.1469L12.6602 23.2399L12.6502 23.2499L12.6472 23.2609L12.6652 23.6909L12.6702 23.7029L12.6782 23.7099L12.8792 23.8029C12.8918 23.8063 12.9015 23.8036 12.9082 23.7949L12.9122 23.7809L12.8782 23.1669C12.8748 23.1549 12.8682 23.1476 12.8582 23.1449ZM12.1432 23.1469C12.1388 23.1443 12.1335 23.1434 12.1285 23.1445C12.1234 23.1456 12.119 23.1487 12.1162 23.1529L12.1102 23.1669L12.0762 23.7809C12.0768 23.7929 12.0825 23.8009 12.0932 23.8049L12.1082 23.8029L12.3092 23.7099L12.3192 23.7019L12.3232 23.6909L12.3402 23.2609L12.3372 23.2489L12.3272 23.2389L12.1432 23.1469Z"/>
</mask>
<path d="M12.5932 23.2579L12.7452 22.2696L12.5793 22.244L12.4142 22.2741L12.5932 23.2579ZM12.5822 23.2599L12.4032 22.2761L12.2655 22.3011L12.14 22.363L12.5822 23.2599ZM12.5112 23.2949L12.7073 24.2755L12.8358 24.2498L12.9533 24.1919L12.5112 23.2949ZM12.4912 23.2989L12.2165 24.2605L12.4496 24.3271L12.6873 24.2795L12.4912 23.2989ZM12.4772 23.2949L12.035 24.1919L12.1158 24.2317L12.2025 24.2565L12.4772 23.2949ZM12.4062 23.2599L12.8483 22.363L12.7786 22.3286L12.7044 22.3055L12.4062 23.2599ZM12.3822 23.2649L11.6013 22.6402L11.5087 22.756L11.4537 22.8936L12.3822 23.2649ZM12.3782 23.2749L11.4497 22.9036L11.3858 23.0633L11.379 23.2352L12.3782 23.2749ZM12.3612 23.7029L11.362 23.6632L11.3563 23.8064L11.391 23.9455L12.3612 23.7029ZM12.3662 23.7229L11.396 23.9655L11.4465 24.1675L11.5735 24.3326L12.3662 23.7229ZM12.3762 23.7359L11.5835 24.3456L11.6747 24.4641L11.7964 24.5507L12.3762 23.7359ZM12.4802 23.8099L11.9004 24.6247L12.0478 24.7296L12.2225 24.7762L12.4802 23.8099ZM12.4952 23.8139L12.2375 24.7802L12.5271 24.8574L12.8114 24.7626L12.4952 23.8139ZM12.5072 23.8099L12.8234 24.7586L12.9652 24.7114L13.0869 24.6247L12.5072 23.8099ZM12.6112 23.7359L13.1909 24.5507L13.3178 24.4605L13.4112 24.3359L12.6112 23.7359ZM12.6232 23.7199L13.4232 24.3199L13.5487 24.1526L13.5966 23.949L12.6232 23.7199ZM12.6272 23.7029L13.6006 23.932L13.6318 23.7993L13.6264 23.6632L12.6272 23.7029ZM12.6102 23.2759L13.6094 23.2362L13.6053 23.1333L13.5803 23.0334L12.6102 23.2759ZM12.8582 23.1449L13.1158 22.1787L12.9133 22.1247L12.7062 22.1566L12.8582 23.1449ZM12.8452 23.1469L12.6932 22.1586L12.5371 22.1826L12.396 22.2535L12.8452 23.1469ZM12.6602 23.2399L12.211 22.3465L12.067 22.4189L11.9531 22.5328L12.6602 23.2399ZM12.6502 23.2499L11.9431 22.5428L11.7553 22.7306L11.6854 22.9869L12.6502 23.2499ZM12.6472 23.2609L11.6824 22.9979L11.6416 23.1476L11.648 23.3028L12.6472 23.2609ZM12.6652 23.6909L11.666 23.7328L11.6735 23.911L11.7421 24.0756L12.6652 23.6909ZM12.6702 23.7029L11.7471 24.0876L11.8366 24.3023L12.0117 24.4555L12.6702 23.7029ZM12.6782 23.7099L12.0197 24.4625L12.1278 24.5572L12.2583 24.6175L12.6782 23.7099ZM12.8792 23.8029L12.4593 24.7105L12.5393 24.7476L12.6247 24.77L12.8792 23.8029ZM12.9082 23.7949L13.7008 24.4046L13.8172 24.2533L13.8697 24.0696L12.9082 23.7949ZM12.9122 23.7809L13.8737 24.0556L13.92 23.8938L13.9106 23.7256L12.9122 23.7809ZM12.8782 23.1669L13.8766 23.1116L13.8707 23.0036L13.8417 22.8993L12.8782 23.1669ZM12.1432 23.1469L11.6249 24.0021L11.6596 24.0232L11.696 24.0414L12.1432 23.1469ZM12.1162 23.1529L11.2845 22.5977L11.2333 22.6743L11.197 22.759L12.1162 23.1529ZM12.1102 23.1669L11.191 22.773L11.1215 22.9353L11.1117 23.1116L12.1102 23.1669ZM12.0762 23.7809L11.0777 23.7256L11.0746 23.781L11.0777 23.8364L12.0762 23.7809ZM12.0932 23.8049L11.742 24.7413L11.9768 24.8293L12.2254 24.7962L12.0932 23.8049ZM12.1082 23.8029L12.2404 24.7942L12.3906 24.7741L12.5281 24.7105L12.1082 23.8029ZM12.3092 23.7099L12.7291 24.6175L12.8391 24.5666L12.9338 24.4908L12.3092 23.7099ZM12.3192 23.7019L12.9438 24.4828L13.163 24.3075L13.259 24.0437L12.3192 23.7019ZM12.3232 23.6909L13.263 24.0327L13.3162 23.8862L13.3224 23.7304L12.3232 23.6909ZM12.3402 23.2609L13.3394 23.3004L13.345 23.1573L13.3103 23.0184L12.3402 23.2609ZM12.3372 23.2489L13.3073 23.0064L13.2401 22.7377L13.0443 22.5418L12.3372 23.2489ZM12.3272 23.2389L13.0343 22.5318L12.9195 22.4171L12.7744 22.3445L12.3272 23.2389ZM12.5932 23.2579L12.4142 22.2741L12.4032 22.2761L12.5822 23.2599L12.7611 24.2438L12.7721 24.2418L12.5932 23.2579ZM12.5822 23.2599L12.14 22.363L12.069 22.398L12.5112 23.2949L12.9533 24.1919L13.0243 24.1569L12.5822 23.2599ZM12.5112 23.2949L12.3151 22.3144L12.2951 22.3184L12.4912 23.2989L12.6873 24.2795L12.7073 24.2755L12.5112 23.2949ZM12.4912 23.2989L12.7659 22.3374L12.7519 22.3334L12.4772 23.2949L12.2025 24.2565L12.2165 24.2605L12.4912 23.2989ZM12.4772 23.2949L12.9193 22.398L12.8483 22.363L12.4062 23.2599L11.964 24.1569L12.035 24.1919L12.4772 23.2949ZM12.4062 23.2599L12.7044 22.3055C12.5936 22.2708 12.4091 22.2337 12.1883 22.2797C11.9458 22.3302 11.7422 22.4641 11.6013 22.6402L12.3822 23.2649L13.163 23.8896C13.0275 24.0591 12.8305 24.1888 12.5961 24.2377C12.3832 24.282 12.208 24.2457 12.1079 24.2144L12.4062 23.2599ZM12.3822 23.2649L11.4537 22.8936L11.4497 22.9036L12.3782 23.2749L13.3067 23.6463L13.3107 23.6363L12.3822 23.2649ZM12.3782 23.2749L11.379 23.2352L11.362 23.6632L12.3612 23.7029L13.3604 23.7426L13.3774 23.3146L12.3782 23.2749ZM12.3612 23.7029L11.391 23.9455L11.396 23.9655L12.3662 23.7229L13.3363 23.4804L13.3313 23.4604L12.3612 23.7029ZM12.3662 23.7229L11.5735 24.3326L11.5835 24.3456L12.3762 23.7359L13.1688 23.1262L13.1588 23.1132L12.3662 23.7229ZM12.3762 23.7359L11.7964 24.5507L11.9004 24.6247L12.4802 23.8099L13.0599 22.9951L12.9559 22.9211L12.3762 23.7359ZM12.4802 23.8099L12.2225 24.7762L12.2375 24.7802L12.4952 23.8139L12.7528 22.8477L12.7378 22.8437L12.4802 23.8099ZM12.4952 23.8139L12.8114 24.7626L12.8234 24.7586L12.5072 23.8099L12.191 22.8612L12.179 22.8652L12.4952 23.8139ZM12.5072 23.8099L13.0869 24.6247L13.1909 24.5507L12.6112 23.7359L12.0314 22.9211L11.9274 22.9951L12.5072 23.8099ZM12.6112 23.7359L13.4112 24.3359L13.4232 24.3199L12.6232 23.7199L11.8232 23.12L11.8112 23.136L12.6112 23.7359ZM12.6232 23.7199L13.5966 23.949L13.6006 23.932L12.6272 23.7029L11.6538 23.4739L11.6498 23.4909L12.6232 23.7199ZM12.6272 23.7029L13.6264 23.6632L13.6094 23.2362L12.6102 23.2759L11.611 23.3157L11.628 23.7427L12.6272 23.7029ZM12.6102 23.2759L13.5803 23.0334C13.5507 22.915 13.4843 22.7392 13.3309 22.5768C13.1654 22.4016 12.9547 22.3018 12.7452 22.2696L12.5932 23.2579L12.4411 24.2463C12.2403 24.2154 12.0367 24.1193 11.8769 23.95C11.7292 23.7936 11.667 23.6262 11.64 23.5185L12.6102 23.2759ZM12.8582 23.1449L12.7062 22.1566L12.6932 22.1586L12.8452 23.1469L12.9972 24.1353L13.0102 24.1333L12.8582 23.1449ZM12.8452 23.1469L12.396 22.2535L12.211 22.3465L12.6602 23.2399L13.1093 24.1334L13.2943 24.0404L12.8452 23.1469ZM12.6602 23.2399L11.9531 22.5328L11.9431 22.5428L12.6502 23.2499L13.3573 23.957L13.3673 23.947L12.6602 23.2399ZM12.6502 23.2499L11.6854 22.9869L11.6824 22.9979L12.6472 23.2609L13.6119 23.524L13.6149 23.513L12.6502 23.2499ZM12.6472 23.2609L11.648 23.3028L11.666 23.7328L12.6652 23.6909L13.6643 23.6491L13.6463 23.2191L12.6472 23.2609ZM12.6652 23.6909L11.7421 24.0756L11.7471 24.0876L12.6702 23.7029L13.5932 23.3183L13.5882 23.3063L12.6652 23.6909ZM12.6702 23.7029L12.0117 24.4555L12.0197 24.4625L12.6782 23.7099L13.3367 22.9573L13.3287 22.9503L12.6702 23.7029ZM12.6782 23.7099L12.2583 24.6175L12.4593 24.7105L12.8792 23.8029L13.2991 22.8954L13.0981 22.8024L12.6782 23.7099ZM12.8792 23.8029L12.6247 24.77C12.7508 24.8032 12.9424 24.828 13.1618 24.7674C13.3952 24.7031 13.5777 24.5647 13.7008 24.4046L12.9082 23.7949L12.1155 23.1852C12.232 23.0339 12.4063 22.9012 12.63 22.8394C12.8398 22.7816 13.0202 22.806 13.1337 22.8359L12.8792 23.8029ZM12.9082 23.7949L13.8697 24.0696L13.8737 24.0556L12.9122 23.7809L11.9506 23.5062L11.9466 23.5202L12.9082 23.7949ZM12.9122 23.7809L13.9106 23.7256L13.8766 23.1116L12.8782 23.1669L11.8797 23.2222L11.9137 23.8362L12.9122 23.7809ZM12.8782 23.1669L13.8417 22.8993C13.7662 22.6274 13.5429 22.2926 13.1158 22.1787L12.8582 23.1449L12.6005 24.1112C12.4286 24.0653 12.2625 23.9701 12.1308 23.8251C12.0054 23.6873 11.9444 23.5415 11.9147 23.4346L12.8782 23.1669ZM12.1432 23.1469L12.6615 22.2917C12.4366 22.1555 12.1679 22.1114 11.9115 22.1683L12.1285 23.1445L12.3454 24.1207C12.0991 24.1754 11.8409 24.1331 11.6249 24.0021L12.1432 23.1469ZM12.1285 23.1445L11.9115 22.1683C11.6551 22.2253 11.4304 22.3791 11.2845 22.5977L12.1162 23.1529L12.9479 23.7081C12.8077 23.9182 12.5918 24.0659 12.3454 24.1207L12.1285 23.1445ZM12.1162 23.1529L11.197 22.759L11.191 22.773L12.1102 23.1669L13.0293 23.5609L13.0353 23.5469L12.1162 23.1529ZM12.1102 23.1669L11.1117 23.1116L11.0777 23.7256L12.0762 23.7809L13.0746 23.8362L13.1086 23.2222L12.1102 23.1669ZM12.0762 23.7809L11.0777 23.8364C11.0861 23.9878 11.1311 24.185 11.2649 24.374C11.4012 24.5664 11.5806 24.6807 11.742 24.7413L12.0932 23.8049L12.4443 22.8686C12.5951 22.9252 12.7663 23.0335 12.8969 23.2179C13.0251 23.3989 13.0669 23.5861 13.0746 23.7255L12.0762 23.7809ZM12.0932 23.8049L12.2254 24.7962L12.2404 24.7942L12.1082 23.8029L11.9759 22.8117L11.961 22.8137L12.0932 23.8049ZM12.1082 23.8029L12.5281 24.7105L12.7291 24.6175L12.3092 23.7099L11.8893 22.8024L11.6883 22.8954L12.1082 23.8029ZM12.3092 23.7099L12.9338 24.4908L12.9438 24.4828L12.3192 23.7019L11.6945 22.921L11.6845 22.929L12.3092 23.7099ZM12.3192 23.7019L13.259 24.0437L13.263 24.0327L12.3232 23.6909L11.3834 23.3492L11.3794 23.3602L12.3192 23.7019ZM12.3232 23.6909L13.3224 23.7304L13.3394 23.3004L12.3402 23.2609L11.341 23.2214L11.324 23.6514L12.3232 23.6909ZM12.3402 23.2609L13.3103 23.0184L13.3073 23.0064L12.3372 23.2489L11.367 23.4915L11.37 23.5035L12.3402 23.2609ZM12.3372 23.2489L13.0443 22.5418L13.0343 22.5318L12.3272 23.2389L11.6201 23.946L11.6301 23.956L12.3372 23.2489ZM12.3272 23.2389L12.7744 22.3445L12.5904 22.2525L12.1432 23.1469L11.696 24.0414L11.88 24.1334L12.3272 23.2389Z" fill="#242424" mask="url(#path-1-inside-1_2387_3126)"/>
<path d="M12 2.5C17.2469 2.5 21.5 6.75314 21.5 12C21.5 17.2469 17.2469 21.5 12 21.5C6.75314 21.5 2.5 17.2469 2.5 12C2.5 6.75314 6.75314 2.5 12 2.5ZM12 3.5C9.74566 3.5 7.58332 4.3952 5.98926 5.98926C4.3952 7.58332 3.5 9.74566 3.5 12C3.5 14.2543 4.3952 16.4167 5.98926 18.0107C7.58332 19.6048 9.74566 20.5 12 20.5C14.2543 20.5 16.4167 19.6048 18.0107 18.0107C19.6048 16.4167 20.5 14.2543 20.5 12C20.5 9.74566 19.6048 7.58332 18.0107 5.98926C16.4167 4.3952 14.2543 3.5 12 3.5ZM12 16.5C12.1326 16.5 12.2597 16.5527 12.3535 16.6465C12.4473 16.7403 12.5 16.8674 12.5 17C12.5 17.1326 12.4473 17.2597 12.3535 17.3535C12.2597 17.4473 12.1326 17.5 12 17.5C11.8674 17.5 11.7403 17.4473 11.6465 17.3535C11.5527 17.2597 11.5 17.1326 11.5 17C11.5 16.8674 11.5527 16.7403 11.6465 16.6465C11.7403 16.5527 11.8674 16.5 12 16.5ZM12 7C12.726 7.00003 13.4294 7.25271 13.9893 7.71484C14.5492 8.17711 14.9309 8.82026 15.0684 9.5332C15.2058 10.2461 15.091 10.9848 14.7432 11.6221C14.4388 12.1798 13.9725 12.6295 13.4092 12.9141L13.1621 13.0254C12.9792 13.0949 12.8143 13.2054 12.6797 13.3477L12.6738 13.3535L12.668 13.3604C12.493 13.5592 12.4918 13.7911 12.4932 13.8789V13.8887L12.4941 13.8984L12.5 14C12.4997 14.1272 12.4506 14.2493 12.3633 14.3418C12.2758 14.4345 12.1565 14.4906 12.0293 14.498C11.9021 14.5055 11.7764 14.4636 11.6787 14.3818C11.6056 14.3205 11.552 14.2401 11.5234 14.1504L11.5039 14.0576L11.5 13.9863V13.75C11.5 12.9026 12.1891 12.3392 12.7881 12.0977L12.7891 12.0986C13.1477 11.9554 13.4608 11.7168 13.6943 11.4092C13.9278 11.1016 14.0727 10.7364 14.1143 10.3525C14.1557 9.96857 14.0921 9.57989 13.9297 9.22949C13.7673 8.87926 13.5121 8.57971 13.1924 8.36328C12.8727 8.14693 12.4998 8.02161 12.1143 8.00098C11.7288 7.98041 11.3449 8.06505 11.0039 8.24609C10.6628 8.42723 10.3776 8.69824 10.1787 9.0293C9.97992 9.36023 9.87481 9.73895 9.875 10.125C9.875 10.2576 9.82228 10.3847 9.72852 10.4785C9.63475 10.5723 9.50761 10.625 9.375 10.625C9.24239 10.625 9.11525 10.5723 9.02148 10.4785C8.92772 10.3847 8.875 10.2576 8.875 10.125C8.875 9.2962 9.20399 8.50109 9.79004 7.91504C10.3761 7.32899 11.1712 7 12 7Z" fill="#242424" stroke="#242424"/>
</svg>
