<svg width="24" height="24" viewBox="0 0 24 24" fill="none" xmlns="http://www.w3.org/2000/svg">
<path d="M12 2.5C17.2469 2.5 21.5 6.75314 21.5 12C21.5 17.2469 17.2469 21.5 12 21.5C6.75314 21.5 2.5 17.2469 2.5 12C2.5 6.75314 6.75314 2.5 12 2.5ZM12 3.5C9.74566 3.5 7.58332 4.3952 5.98926 5.98926C4.3952 7.58332 3.5 9.74566 3.5 12C3.5 14.2543 4.3952 16.4167 5.98926 18.0107C7.58332 19.6048 9.74566 20.5 12 20.5C14.2543 20.5 16.4167 19.6048 18.0107 18.0107C19.6048 16.4167 20.5 14.2543 20.5 12C20.5 9.74566 19.6048 7.58332 18.0107 5.98926C16.4167 4.3952 14.2543 3.5 12 3.5ZM12 16.5C12.1326 16.5 12.2597 16.5527 12.3535 16.6465C12.4473 16.7403 12.5 16.8674 12.5 17C12.5 17.1326 12.4473 17.2597 12.3535 17.3535C12.2597 17.4473 12.1326 17.5 12 17.5C11.8674 17.5 11.7403 17.4473 11.6465 17.3535C11.5527 17.2597 11.5 17.1326 11.5 17C11.5 16.8674 11.5527 16.7403 11.6465 16.6465C11.7403 16.5527 11.8674 16.5 12 16.5ZM12 7C12.726 7.00003 13.4294 7.25271 13.9893 7.71484C14.5492 8.17711 14.9309 8.82026 15.0684 9.5332C15.2058 10.2461 15.091 10.9848 14.7432 11.6221C14.4388 12.1798 13.9725 12.6294 13.4092 12.9141L13.1621 13.0254C12.9792 13.0949 12.8143 13.2054 12.6797 13.3477L12.6738 13.3535L12.668 13.3604C12.493 13.5592 12.4918 13.7911 12.4932 13.8789V13.8887L12.4941 13.8984L12.5 14C12.4997 14.1272 12.4506 14.2493 12.3633 14.3418C12.2758 14.4345 12.1565 14.4906 12.0293 14.498C11.9021 14.5055 11.7764 14.4636 11.6787 14.3818C11.6056 14.3205 11.552 14.2401 11.5234 14.1504L11.5039 14.0576L11.5 13.9863V13.75C11.5 12.9026 12.1891 12.3392 12.7881 12.0977L12.7891 12.0986C13.1477 11.9554 13.4608 11.7168 13.6943 11.4092C13.9278 11.1016 14.0727 10.7364 14.1143 10.3525C14.1557 9.96857 14.0921 9.57989 13.9297 9.22949C13.7673 8.87926 13.5121 8.57971 13.1924 8.36328C12.8727 8.14693 12.4998 8.02161 12.1143 8.00098C11.7288 7.98041 11.3449 8.06505 11.0039 8.24609C10.6628 8.42723 10.3776 8.69824 10.1787 9.0293C9.97992 9.36023 9.87481 9.73895 9.875 10.125C9.875 10.2576 9.82228 10.3847 9.72852 10.4785C9.63475 10.5723 9.50761 10.625 9.375 10.625C9.24239 10.625 9.11525 10.5723 9.02148 10.4785C8.92772 10.3847 8.875 10.2576 8.875 10.125C8.875 9.2962 9.20399 8.50109 9.79004 7.91504C10.3394 7.36569 11.0725 7.0423 11.8447 7.00391L12 7Z" fill="#242424" stroke="#242424"/>
</svg>
