<svg width="25" height="25" viewBox="0 0 25 25" fill="none" xmlns="http://www.w3.org/2000/svg">
<path d="M22.5543 13.3267C22.3539 13.0986 22.2434 12.8053 22.2434 12.5017C22.2434 12.1981 22.3539 11.9048 22.5543 11.6767L24.1543 9.8767C24.3306 9.68004 24.4401 9.43258 24.4671 9.16983C24.494 8.90709 24.437 8.64256 24.3043 8.4142L21.8043 4.0892C21.6729 3.8611 21.4729 3.6803 21.2327 3.57256C20.9926 3.46482 20.7245 3.43565 20.4668 3.4892L18.1168 3.9642C17.8178 4.02599 17.5065 3.97619 17.2417 3.8242C16.9768 3.67221 16.7768 3.42855 16.6793 3.1392L15.9168 0.8517C15.833 0.603424 15.6732 0.387781 15.4601 0.235252C15.247 0.0827236 14.9914 0.0010235 14.7293 0.00169995H9.72931C9.45673 -0.0125276 9.18698 0.0628579 8.96127 0.216343C8.73556 0.369827 8.56629 0.592974 8.47931 0.8517L7.77931 3.1392C7.68181 3.42855 7.48178 3.67221 7.21695 3.8242C6.95213 3.97619 6.64084 4.02599 6.34181 3.9642L3.92931 3.4892C3.685 3.45468 3.43594 3.49323 3.2135 3.6C2.99106 3.70677 2.80519 3.87699 2.67931 4.0892L0.179314 8.4142C0.0432638 8.64001 -0.0179087 8.90306 0.00454193 9.16573C0.0269925 9.4284 0.131917 9.67725 0.304314 9.8767L1.89181 11.6767C2.09221 11.9048 2.20273 12.1981 2.20273 12.5017C2.20273 12.8053 2.09221 13.0986 1.89181 13.3267L0.304314 15.1267C0.131917 15.3261 0.0269925 15.575 0.00454193 15.8377C-0.0179087 16.1003 0.0432638 16.3634 0.179314 16.5892L2.67931 20.9142C2.81069 21.1423 3.01071 21.3231 3.25088 21.4308C3.49105 21.5386 3.75909 21.5678 4.01681 21.5142L6.36681 21.0392C6.66583 20.9774 6.97713 21.0272 7.24195 21.1792C7.50678 21.3312 7.70682 21.5748 7.80431 21.8642L8.56681 24.1517C8.65379 24.4104 8.82306 24.6336 9.04877 24.7871C9.27448 24.9405 9.54423 25.0159 9.81681 25.0017H14.8168C15.0789 25.0024 15.3345 24.9207 15.5476 24.7681C15.7607 24.6156 15.9205 24.4 16.0043 24.1517L16.7668 21.8642C16.8643 21.5748 17.0643 21.3312 17.3292 21.1792C17.594 21.0272 17.9053 20.9774 18.2043 21.0392L20.5543 21.5142C20.812 21.5678 21.0801 21.5386 21.3202 21.4308C21.5604 21.3231 21.7604 21.1423 21.8918 20.9142L24.3918 16.5892C24.5245 16.3608 24.5815 16.0963 24.5546 15.8336C24.5276 15.5708 24.4181 15.3234 24.2418 15.1267L22.5543 13.3267ZM20.6918 15.0017L21.6918 16.1267L20.0918 18.9017L18.6168 18.6017C17.7165 18.4177 16.78 18.5706 15.9851 19.0315C15.1901 19.4923 14.592 20.229 14.3043 21.1017L13.8293 22.5017H10.6293L10.1793 21.0767C9.89163 20.204 9.29354 19.4673 8.49857 19.0065C7.7036 18.5456 6.76709 18.3927 5.86681 18.5767L4.39181 18.8767L2.76681 16.1142L3.76681 14.9892C4.38176 14.3017 4.72173 13.4116 4.72173 12.4892C4.72173 11.5668 4.38176 10.6767 3.76681 9.9892L2.76681 8.8642L4.36681 6.1142L5.84181 6.4142C6.74209 6.59823 7.6786 6.4453 8.47357 5.98445C9.26854 5.5236 9.86663 4.7869 10.1543 3.9142L10.6293 2.5017H13.8293L14.3043 3.9267C14.592 4.7994 15.1901 5.5361 15.9851 5.99695C16.78 6.4578 17.7165 6.61073 18.6168 6.4267L20.0918 6.1267L21.6918 8.9017L20.6918 10.0267C20.0838 10.7127 19.748 11.5976 19.748 12.5142C19.748 13.4308 20.0838 14.3158 20.6918 15.0017ZM12.2293 7.5017C11.2404 7.5017 10.2737 7.79495 9.45146 8.34435C8.62922 8.89376 7.98835 9.67465 7.60992 10.5883C7.23148 11.5019 7.13246 12.5072 7.32539 13.4772C7.51831 14.4471 7.99452 15.338 8.69378 16.0372C9.39304 16.7365 10.284 17.2127 11.2539 17.4056C12.2238 17.5986 13.2291 17.4995 14.1427 17.1211C15.0564 16.7427 15.8373 16.1018 16.3867 15.2796C16.9361 14.4573 17.2293 13.4906 17.2293 12.5017C17.2293 11.1756 16.7025 9.90385 15.7648 8.96617C14.8272 8.02848 13.5554 7.5017 12.2293 7.5017ZM12.2293 15.0017C11.7349 15.0017 11.2515 14.8551 10.8404 14.5804C10.4293 14.3057 10.1088 13.9152 9.91961 13.4584C9.7304 13.0016 9.68089 12.4989 9.77735 12.014C9.87381 11.529 10.1119 11.0836 10.4615 10.7339C10.8112 10.3843 11.2566 10.1462 11.7416 10.0497C12.2265 9.95327 12.7292 10.0028 13.186 10.192C13.6428 10.3812 14.0333 10.7017 14.308 11.1128C14.5827 11.5239 14.7293 12.0072 14.7293 12.5017C14.7293 13.1647 14.4659 13.8006 13.9971 14.2695C13.5282 14.7383 12.8924 15.0017 12.2293 15.0017Z" fill="black"/>
</svg>
