<svg width="24" height="24" viewBox="0 0 24 24" fill="none" xmlns="http://www.w3.org/2000/svg">
<path d="M15 19C16.2 15.322 17.526 13.995 21 13C17.526 12.005 16.2 10.678 15 7C13.8 10.678 12.474 12.005 9 13C12.474 13.995 13.8 15.322 15 19ZM7 10C7.6 8.16 8.263 7.497 10 7C8.263 6.503 7.6 5.84 7 4C6.4 5.84 5.737 6.503 4 7C5.737 7.497 6.4 8.16 7 10ZM8.5 20C8.8 19.08 9.131 18.749 10 18.5C9.131 18.251 8.8 17.92 8.5 17C8.2 17.92 7.869 18.251 7 18.5C7.869 18.749 8.2 19.08 8.5 20Z" stroke="black" stroke-width="2" stroke-linejoin="round"/>
</svg>
