<svg width="12" height="11" viewBox="0 0 12 11" fill="none" xmlns="http://www.w3.org/2000/svg">
<path d="M5.9997 9.21524L3.09126 10.8969C2.96278 10.9753 2.82845 11.009 2.68829 10.9977C2.54812 10.9865 2.42548 10.9417 2.32035 10.8632C2.21523 10.7847 2.13347 10.6868 2.07506 10.5693C2.01666 10.4518 2.00498 10.3199 2.04002 10.1738L2.81093 6.99551L0.235391 4.85986C0.118587 4.75897 0.0457004 4.64394 0.0167328 4.51479C-0.0122347 4.38565 -0.00359123 4.25964 0.0426634 4.13677C0.0889181 4.0139 0.159001 3.913 0.252912 3.83408C0.346823 3.75515 0.475308 3.70471 0.638367 3.68273L4.03738 3.39686L5.35144 0.403587C5.40984 0.269058 5.50048 0.168161 5.62336 0.100897C5.74624 0.0336322 5.87168 0 5.9997 0C6.12772 0 6.25317 0.0336322 6.37605 0.100897C6.49892 0.168161 6.58956 0.269058 6.64797 0.403587L7.96202 3.39686L11.361 3.68273C11.5246 3.70515 11.653 3.7556 11.7465 3.83408C11.8399 3.91255 11.91 4.01345 11.9567 4.13677C12.0035 4.26009 12.0123 4.38632 11.9834 4.51547C11.9544 4.64462 11.8813 4.75941 11.764 4.85986L9.18847 6.99551L9.95938 10.1738C9.99442 10.3195 9.98274 10.4513 9.92434 10.5693C9.86594 10.6872 9.78417 10.7852 9.67905 10.8632C9.57392 10.9412 9.45128 10.9861 9.31111 10.9977C9.17095 11.0094 9.03662 10.9758 8.90814 10.8969L5.9997 9.21524Z" fill="#9326BF"/>
</svg>
