<svg width="18" height="20" viewBox="0 0 18 20" fill="none" xmlns="http://www.w3.org/2000/svg">
<path d="M16.75 18.75C16.75 17.3544 16.75 16.6567 16.5778 16.0889C16.19 14.8105 15.1895 13.81 13.9111 13.4222C13.3433 13.25 12.6456 13.25 11.25 13.25H6.25C4.85444 13.25 4.15665 13.25 3.58886 13.4222C2.31045 13.81 1.31004 14.8105 0.92224 16.0889C0.75 16.6567 0.75 17.3544 0.75 18.75M13.25 5.25C13.25 7.73528 11.2353 9.75 8.75 9.75C6.26472 9.75 4.25 7.73528 4.25 5.25C4.25 2.76472 6.26472 0.75 8.75 0.75C11.2353 0.75 13.25 2.76472 13.25 5.25Z" stroke="#696969" stroke-width="1.5" stroke-linecap="round" stroke-linejoin="round"/>
</svg>
